<svg enable-background="new 0 0 800 800" viewBox="0 0 800 800" xmlns="http://www.w3.org/2000/svg" xmlns:xlink="http://www.w3.org/1999/xlink"><linearGradient id="a" gradientUnits="userSpaceOnUse" x1="669.1342" x2="205.0875" y1="668.5557" y2="204.509"><stop offset=".1244" stop-color="#85dbdc"/><stop offset="1" stop-color="#5949ff"/></linearGradient><path d="m731 127.9h-167.3c-18.3 0-33.2 15-33.2 33.2v167.3c0 18.3 15 33.2 33.2 33.2h167.3c18.3 0 33.2-15 33.2-33.2v-167.3c.1-18.3-14.9-33.2-33.2-33.2z" fill="#4612c6"/><path d="m731 531.1h-162.6l-210.8-210.8v-251.9c0-18.3-15-33.2-33.2-33.2h-255.4c-18.3 0-33.2 15-33.2 33.2v255.4c0 18.3 15 33.2 33.2 33.2h251.9l209.6 209.6v165c0 18.3 15 33.2 33.2 33.2h167.3c18.3 0 33.2-15 33.2-33.2v-167.3c.1-18.3-14.9-33.2-33.2-33.2z" fill="url(#a)"/><path d="m327.9 531.1h-167.4c-18.3 0-33.2 15-33.2 33.2v167.3c0 18.3 15 33.2 33.2 33.2h167.3c18.3 0 33.2-15 33.2-33.2v-167.3c.1-18.3-14.9-33.2-33.1-33.2z" fill="#4612c6"/></svg>